<?xml version="1.0" standalone="no"?>
<!DOCTYPE svg PUBLIC "-//W3C//DTD SVG 20010904//EN"
 "http://www.w3.org/TR/2001/REC-SVG-20010904/DTD/svg10.dtd">
<svg version="1.0" xmlns="http://www.w3.org/2000/svg"
 width="227.000000pt" height="115.000000pt" viewBox="0 0 227.000000 115.000000"
 preserveAspectRatio="xMidYMid meet">

<g transform="translate(0.000000,115.000000) scale(0.100000,-0.100000)"
fill="#000000" stroke="none">
<path d="M1808 903 c-28 -7 -22 -33 7 -33 18 0 25 5 25 20 0 20 -2 21 -32 13z"/>
<path d="M1730 843 c-14 -3 -28 -10 -32 -17 -13 -19 -9 -106 5 -111 13 -5 230
-25 233 -22 1 1 9 37 16 80 l15 77 -106 -1 c-58 -1 -117 -4 -131 -6z"/>
<path d="M1624 675 c2 -11 8 -37 12 -59 l7 -38 51 6 c28 3 63 6 79 6 25 0 27
3 27 45 0 52 -2 53 -113 57 -64 3 -68 2 -63 -17z"/>
<path d="M380 570 c0 -117 16 -152 22 -47 4 86 -1 157 -13 157 -5 0 -9 -48 -9
-110z"/>
<path d="M230 652 c-36 -29 -21 -66 35 -91 43 -19 50 -28 45 -61 -3 -24 -22
-31 -70 -25 -31 3 -40 2 -30 -5 23 -15 73 -12 98 6 39 27 26 64 -30 93 -40 19
-48 28 -48 51 0 31 26 44 70 34 20 -5 22 -3 10 5 -23 16 -55 13 -80 -7z"/>
<path d="M1888 663 c-49 -3 -58 -7 -58 -23 0 -10 -3 -26 -6 -35 -6 -14 4 -15
82 -13 l89 3 6 38 c7 42 21 38 -113 30z"/>
<path d="M1467 633 c-15 -14 -5 -22 37 -28 l45 -7 68 -184 67 -184 148 0 c143
0 148 1 148 21 0 20 -3 21 -129 14 l-128 -7 -11 30 c-10 28 -9 30 20 36 17 3
82 6 144 6 63 0 114 2 114 4 0 4 58 203 65 224 4 12 -35 13 -222 11 l-227 -4
-14 38 c-14 36 -16 37 -67 37 -28 0 -55 -3 -58 -7z m539 -103 c-3 -11 -9 -29
-12 -40 -8 -30 -32 -25 -26 5 4 23 1 25 -32 25 -34 0 -44 8 -29 23 3 4 28 7
55 7 45 0 49 -2 44 -20z m-286 0 c0 -5 -9 -10 -20 -10 -11 0 -20 -7 -20 -15 0
-9 9 -15 25 -15 14 0 25 -4 25 -10 0 -5 -13 -10 -30 -10 -16 0 -30 -4 -30 -10
0 -23 -18 -7 -32 29 l-16 40 32 4 c59 7 66 7 66 -3z m143 -22 c-7 -38 -23 -60
-30 -40 -3 6 -20 12 -39 12 -19 0 -34 5 -34 10 0 6 16 10 35 10 53 0 47 28 -7
33 -34 3 -30 4 19 5 l63 2 -7 -32z m112 -90 c-4 -18 -9 -36 -11 -39 -5 -10
-74 -16 -74 -8 0 4 12 9 27 11 19 2 29 10 31 23 5 34 11 45 22 45 8 0 9 -11 5
-32z m-115 -18 l0 -40 -42 1 c-30 2 -35 3 -15 6 23 4 27 9 27 39 0 24 5 34 15
34 11 0 15 -11 15 -40z m-169 1 c7 -21 19 -31 37 -34 20 -4 17 -4 -7 -3 -29 1
-37 6 -48 34 -8 21 -9 32 -3 32 6 0 16 -13 21 -29z"/>
<path d="M450 601 l35 -6 3 -67 c4 -86 22 -90 22 -5 0 73 -10 88 -59 86 l-36
-2 35 -6z"/>
<path d="M576 588 c-54 -77 46 -175 103 -102 44 56 17 124 -49 124 -29 0 -43
-6 -54 -22z m92 0 c30 -30 5 -118 -34 -118 -37 0 -54 20 -54 63 0 49 13 67 50
67 14 0 31 -5 38 -12z"/>
<path d="M750 500 c0 -67 4 -110 10 -110 6 0 10 21 10 46 0 33 3 43 13 38 9
-6 8 -3 -1 9 -8 9 -13 35 -12 59 3 60 1 68 -10 68 -6 0 -10 -43 -10 -110z"/>
<path d="M815 603 c17 -2 36 -12 43 -21 28 -37 4 -106 -41 -115 -20 -4 -19 -4
4 -6 50 -2 78 57 55 113 -14 33 -18 36 -53 35 -34 -2 -34 -2 -8 -6z"/>
<path d="M942 499 c1 -63 3 -93 5 -66 4 45 14 59 28 37 3 -5 19 -10 35 -10 37
0 60 32 60 82 0 45 -22 68 -63 67 l-32 -2 34 -6 c29 -5 36 -12 43 -39 12 -44
-8 -86 -43 -90 -36 -4 -53 21 -54 79 -1 26 -4 52 -8 55 -4 4 -6 -44 -5 -107z"/>
<path d="M1137 592 c-24 -26 -22 -87 3 -112 21 -21 84 -28 95 -11 3 6 -9 8
-29 4 -26 -4 -39 0 -55 16 -37 37 -28 51 34 51 59 0 67 9 45 51 -14 25 -71 26
-93 1z m83 -11 c15 -30 14 -31 -40 -31 -54 0 -55 1 -40 31 14 26 66 26 80 0z"/>
<path d="M1303 535 c0 -74 0 -76 6 -24 7 62 23 88 55 90 18 1 18 2 3 6 -10 3
-27 -3 -37 -12 -17 -15 -19 -15 -23 2 -3 10 -5 -18 -4 -62z"/>
<path d="M1703 213 c-18 -7 -16 -50 2 -57 36 -14 61 24 33 52 -13 13 -16 13
-35 5z"/>
<path d="M1926 205 c-12 -12 -13 -21 -6 -36 13 -23 33 -25 51 -3 9 11 10 20 3
32 -15 23 -29 25 -48 7z"/>
</g>
</svg>
