<?xml version="1.0" encoding="iso-8859-1"?>
<!-- Generator: Adobe Illustrator 18.0.0, SVG Export Plug-In . SVG Version: 6.00 Build 0)  -->
<!DOCTYPE svg PUBLIC "-//W3C//DTD SVG 1.1//EN" "http://www.w3.org/Graphics/SVG/1.1/DTD/svg11.dtd">
<svg version="1.1" id="Capa_1" xmlns="http://www.w3.org/2000/svg" xmlns:xlink="http://www.w3.org/1999/xlink" x="0px" y="0px"
	 viewBox="0 0 60 60" style="enable-background:new 0 0 60 60;" xml:space="preserve">
<path d="M59.498,12.107c0-0.154-0.032-0.3-0.089-0.433c-0.004-0.097-0.02-0.195-0.047-0.29l-4.121-8.988
	C54.572,0.94,53.104,0,51.501,0h-8.169h-2.033h-9.802h-2h-9.802h-2.033H9.494C7.887,0,6.427,0.935,5.755,2.394l-4.063,8.824
	l-0.054,0.144C1.6,11.499,1.593,11.64,1.601,11.78c-0.066,0.154-0.103,0.324-0.103,0.502V19c0,1.401,0.364,2.718,1,3.864v7.351
	c-0.459,0.503-0.8,1.132-0.93,1.83c-0.11,0.597-0.075,1.229,0.103,1.829c0.097,0.328,0.02,0.726-0.208,1.063
	c-1.047,1.548-1.26,3.707-0.528,5.372c0.11,0.252,0.248,0.489,0.41,0.708c0.231,0.311,0.313,0.724,0.22,1.104
	c-0.052,0.205-0.087,0.416-0.106,0.626c-0.082,0.896,0.103,1.766,0.25,2.464c0.155,0.735,0.39,1.847,1.214,2.555
	c0.433,0.373,0.977,0.576,1.576,0.61V52H1.583c-0.663,0-1.167,0.595-1.058,1.249L1.651,60h5.666h2.027h27.153h18h4V22.864
	c0.636-1.147,1-2.463,1-3.864V12.107z M8.79,24.954c-0.08-0.01-0.159-0.024-0.238-0.036c-0.15-0.024-0.298-0.052-0.444-0.087
	c-0.093-0.022-0.186-0.045-0.278-0.072c-0.132-0.038-0.262-0.084-0.39-0.131c-0.09-0.033-0.181-0.061-0.268-0.098
	c-0.189-0.08-0.373-0.17-0.552-0.268c-0.091-0.05-0.178-0.107-0.266-0.162c-0.108-0.067-0.215-0.136-0.319-0.21
	c-0.079-0.056-0.156-0.114-0.232-0.174c-0.133-0.105-0.262-0.215-0.386-0.332c-0.037-0.035-0.077-0.067-0.113-0.103
	c-0.174-0.172-0.34-0.355-0.495-0.55c-0.003-0.003-0.005-0.007-0.008-0.01c-0.156-0.198-0.301-0.408-0.434-0.628
	c-0.035-0.058-0.073-0.115-0.106-0.175l-0.038-0.064C3.76,21.004,3.498,20.032,3.498,19v-6h11.802h0.198v6c0,3.309-2.691,6-6,6
	C9.258,25,9.023,24.982,8.79,24.954z M31.498,13h12v6c0,3.309-2.691,6-6,6s-6-2.691-6-6V13z M51.501,2
	c0.823,0,1.578,0.483,1.922,1.231L56.996,11H45.498h-0.165l-0.826-4.541L43.696,2H51.501z M19.332,2h10.165v9H17.696l0.818-4.5
	L19.332,2z M3.665,44.797c-0.126-0.597-0.27-1.273-0.215-1.868c0.01-0.107,0.027-0.217,0.055-0.325
	c0.237-0.955,0.029-1.995-0.556-2.78c-0.07-0.096-0.135-0.206-0.184-0.318c-0.458-1.044-0.313-2.462,0.354-3.448
	c0.567-0.841,0.737-1.844,0.468-2.75c-0.087-0.295-0.105-0.614-0.053-0.898c0.07-0.378,0.265-0.721,0.524-0.958l0.066-0.053
	c0.098-0.078,0.18-0.132,0.251-0.166l0.906-0.74c0.064-0.066,0.138-0.109,0.212-0.149c0.058-0.029,0.118-0.054,0.18-0.071
	c0.003-0.001,0.005-0.002,0.008-0.002c0.144-0.039,0.292-0.051,0.416-0.051c0.108,0,0.217,0.008,0.322,0.023
	c0.362,0.051,0.692,0.173,0.971,0.346l0.22,0.182c0.105,0.087,0.19,0.17,0.263,0.252c0.072,0.088,0.145,0.176,0.197,0.275
	c0.154,0.297,0.202,0.7,0.127,1.053c-0.192,0.898,0.038,1.854,0.617,2.557c0.118,0.144,0.208,0.335,0.246,0.525
	c0.025,0.124,0.037,0.255,0.037,0.394c-0.001,0.418-0.114,0.908-0.343,1.485c-0.193,0.489-0.414,0.905-0.655,1.237
	c-0.49,0.675-0.667,1.558-0.517,2.441c0.05,0.294,0.136,0.589,0.26,0.876c0.118,0.271,0.186,0.581,0.204,0.893
	c0.018,0.313-0.016,0.629-0.102,0.914c-0.048,0.16-0.109,0.311-0.178,0.455c-0.138,0.287-0.321,0.56-0.548,0.817
	c-0.01,0.011-0.02,0.02-0.03,0.031c-0.102,0.113-0.213,0.224-0.332,0.331c-0.395,0.354-0.808,0.607-1.112,0.765
	c-0.191,0.099-0.377,0.173-0.554,0.227l-0.037,0.011c-0.177,0.051-0.343,0.08-0.488,0.08c-0.25,0-0.372-0.08-0.442-0.141
	C3.915,45.981,3.764,45.269,3.665,44.797z M6.498,47.93c0.056-0.026,0.111-0.054,0.166-0.082c0.411-0.213,0.791-0.455,1.137-0.721
	L9.209,52H6.498V47.93z M7.65,58H3.344l-0.666-4h1.819h3.819L7.65,58z M49.498,47v-3c0-0.553,0.447-1,1-1s1,0.447,1,1v3
	c0,0.553-0.447,1-1,1S49.498,47.553,49.498,47z M56.498,58h-2V29h-18v29H9.678l0.667-4h24.153V29H8.608
	c-0.548-0.377-1.198-0.637-1.907-0.738c-0.247-0.035-0.494-0.04-0.738-0.03c-0.058,0.003-0.114,0.008-0.171,0.013
	c-0.218,0.018-0.427,0.052-0.628,0.104c-0.019,0.005-0.039,0.008-0.058,0.013c-0.218,0.06-0.427,0.134-0.61,0.233v-3.348
	c0.574,0.463,1.21,0.836,1.887,1.122c0.003,0.001,0.005,0.002,0.008,0.003c0.221,0.093,0.447,0.176,0.677,0.248
	c0.039,0.012,0.078,0.024,0.117,0.036c0.195,0.059,0.393,0.109,0.594,0.153c0.06,0.013,0.12,0.027,0.18,0.039
	c0.188,0.036,0.379,0.065,0.572,0.088c0.066,0.008,0.131,0.019,0.197,0.025C8.983,26.985,9.239,27,9.498,27
	c0.338,0,0.669-0.028,0.996-0.069c0.094-0.012,0.187-0.028,0.28-0.043c0.247-0.04,0.489-0.091,0.728-0.153
	c0.083-0.021,0.166-0.04,0.248-0.064c0.307-0.09,0.607-0.195,0.898-0.32c0.045-0.019,0.086-0.043,0.13-0.063
	c0.247-0.112,0.487-0.236,0.721-0.372c0.081-0.047,0.159-0.095,0.238-0.145c0.212-0.133,0.416-0.275,0.614-0.427
	c0.055-0.042,0.113-0.081,0.167-0.125c0.243-0.196,0.474-0.406,0.692-0.629c0.049-0.05,0.094-0.104,0.142-0.156
	c0.169-0.182,0.329-0.371,0.481-0.567c0.057-0.074,0.113-0.148,0.167-0.224c0.157-0.219,0.303-0.445,0.437-0.679
	c0.019-0.033,0.043-0.063,0.062-0.096c0.019,0.033,0.043,0.063,0.062,0.096c0.134,0.234,0.281,0.46,0.437,0.679
	c0.054,0.076,0.11,0.15,0.167,0.224c0.152,0.197,0.312,0.386,0.481,0.567c0.048,0.052,0.092,0.106,0.142,0.156
	c0.218,0.223,0.449,0.433,0.692,0.629c0.054,0.044,0.112,0.083,0.167,0.125c0.198,0.152,0.402,0.294,0.614,0.427
	c0.079,0.049,0.157,0.098,0.238,0.145c0.233,0.135,0.473,0.26,0.721,0.372c0.044,0.02,0.086,0.044,0.13,0.063
	c0.29,0.125,0.591,0.23,0.898,0.32c0.082,0.024,0.165,0.042,0.248,0.064c0.239,0.062,0.481,0.113,0.728,0.153
	c0.093,0.015,0.186,0.031,0.28,0.043C22.829,26.972,23.16,27,23.498,27s0.669-0.028,0.996-0.069c0.094-0.012,0.187-0.028,0.28-0.043
	c0.247-0.04,0.489-0.091,0.728-0.153c0.083-0.021,0.166-0.04,0.248-0.064c0.307-0.09,0.607-0.195,0.898-0.32
	c0.045-0.019,0.086-0.043,0.13-0.063c0.247-0.112,0.487-0.236,0.721-0.372c0.081-0.047,0.159-0.095,0.238-0.145
	c0.212-0.133,0.416-0.275,0.614-0.427c0.055-0.042,0.113-0.081,0.167-0.125c0.243-0.196,0.474-0.406,0.692-0.629
	c0.049-0.05,0.094-0.104,0.142-0.156c0.169-0.182,0.329-0.371,0.481-0.567c0.057-0.074,0.113-0.148,0.167-0.224
	c0.157-0.219,0.303-0.445,0.437-0.679c0.019-0.033,0.043-0.063,0.062-0.096c0.019,0.033,0.043,0.063,0.062,0.096
	c0.134,0.234,0.281,0.46,0.437,0.679c0.054,0.076,0.11,0.15,0.167,0.224c0.152,0.197,0.312,0.386,0.481,0.567
	c0.048,0.052,0.092,0.106,0.142,0.156c0.218,0.223,0.449,0.433,0.692,0.629c0.054,0.044,0.112,0.083,0.167,0.125
	c0.198,0.152,0.402,0.294,0.614,0.427c0.079,0.049,0.157,0.098,0.238,0.145c0.233,0.135,0.473,0.26,0.721,0.372
	c0.044,0.02,0.086,0.044,0.13,0.063c0.29,0.125,0.591,0.23,0.898,0.32c0.082,0.024,0.165,0.042,0.248,0.064
	c0.239,0.062,0.481,0.113,0.728,0.153c0.093,0.015,0.186,0.031,0.28,0.043C36.829,26.972,37.16,27,37.498,27
	s0.669-0.028,0.996-0.069c0.094-0.012,0.187-0.028,0.28-0.043c0.247-0.04,0.489-0.091,0.728-0.153
	c0.083-0.021,0.166-0.04,0.248-0.064c0.307-0.09,0.607-0.195,0.898-0.32c0.045-0.019,0.086-0.043,0.13-0.063
	c0.247-0.112,0.487-0.236,0.721-0.372c0.081-0.047,0.159-0.095,0.238-0.145c0.212-0.133,0.416-0.275,0.614-0.427
	c0.055-0.042,0.113-0.081,0.167-0.125c0.243-0.196,0.474-0.406,0.692-0.629c0.049-0.05,0.094-0.104,0.142-0.156
	c0.169-0.182,0.329-0.371,0.481-0.567c0.057-0.074,0.113-0.148,0.167-0.224c0.157-0.219,0.303-0.445,0.437-0.679
	c0.019-0.033,0.043-0.063,0.062-0.096c0.019,0.033,0.043,0.063,0.062,0.096c0.134,0.234,0.281,0.46,0.437,0.679
	c0.054,0.076,0.11,0.15,0.167,0.224c0.152,0.197,0.312,0.386,0.481,0.567c0.048,0.052,0.092,0.106,0.142,0.156
	c0.218,0.223,0.449,0.433,0.692,0.629c0.054,0.044,0.112,0.083,0.167,0.125c0.198,0.152,0.402,0.294,0.614,0.427
	c0.079,0.049,0.157,0.098,0.238,0.145c0.233,0.135,0.473,0.26,0.721,0.372c0.044,0.02,0.086,0.044,0.13,0.063
	c0.29,0.125,0.591,0.23,0.898,0.32c0.082,0.024,0.165,0.042,0.248,0.064c0.239,0.062,0.481,0.113,0.728,0.153
	c0.093,0.015,0.186,0.031,0.28,0.043C50.829,26.972,51.16,27,51.498,27c0.259,0,0.514-0.015,0.768-0.039
	c0.066-0.006,0.131-0.017,0.197-0.025c0.192-0.023,0.383-0.051,0.572-0.088c0.061-0.012,0.12-0.026,0.18-0.039
	c0.201-0.044,0.399-0.095,0.594-0.153c0.039-0.012,0.078-0.023,0.117-0.036c0.23-0.073,0.456-0.155,0.677-0.248
	c0.003-0.001,0.005-0.002,0.008-0.003c0.677-0.286,1.313-0.659,1.887-1.122V58z M28.205,34.707l-3,3
	C25.009,37.902,24.753,38,24.498,38s-0.512-0.098-0.707-0.293c-0.391-0.391-0.391-1.023,0-1.414l3-3
	c0.391-0.391,1.023-0.391,1.414,0S28.595,34.316,28.205,34.707z M28.788,36.29c0.37-0.37,1.05-0.37,1.42,0
	c0.18,0.189,0.29,0.45,0.29,0.71s-0.11,0.52-0.29,0.71c-0.19,0.18-0.45,0.29-0.71,0.29s-0.521-0.11-0.71-0.29
	c-0.181-0.19-0.29-0.45-0.29-0.71S28.607,36.479,28.788,36.29z M23.205,34.707l-4,4C19.009,38.902,18.753,39,18.498,39
	s-0.512-0.098-0.707-0.293c-0.391-0.391-0.391-1.023,0-1.414l4-4c0.391-0.391,1.023-0.391,1.414,0S23.595,34.316,23.205,34.707z
	 M23.498,39c0,0.26-0.11,0.52-0.29,0.71c-0.19,0.18-0.45,0.29-0.71,0.29c-0.271,0-0.521-0.11-0.71-0.3
	c-0.181-0.181-0.29-0.44-0.29-0.7s0.109-0.521,0.29-0.71c0.37-0.37,1.05-0.37,1.42,0C23.387,38.479,23.498,38.74,23.498,39z
	 M17.79,42.293l2-2c0.391-0.391,1.023-0.391,1.414,0s0.391,1.023,0,1.414l-2,2C19.009,43.902,18.753,44,18.498,44
	s-0.512-0.098-0.707-0.293C17.4,43.316,17.4,42.684,17.79,42.293z M17.79,47.293l9-9c0.391-0.391,1.023-0.391,1.414,0
	s0.391,1.023,0,1.414l-9,9C19.009,48.902,18.753,49,18.498,49s-0.512-0.098-0.707-0.293C17.4,48.316,17.4,47.684,17.79,47.293z"/>
<g>
</g>
<g>
</g>
<g>
</g>
<g>
</g>
<g>
</g>
<g>
</g>
<g>
</g>
<g>
</g>
<g>
</g>
<g>
</g>
<g>
</g>
<g>
</g>
<g>
</g>
<g>
</g>
<g>
</g>
</svg>
